<svg xmlns="http://www.w3.org/2000/svg" viewBox="0 0 500 500"><g id="freepik--Symbols--inject-17"><g style="opacity:0.30000000000000004"><path d="M393.39,312.23V301.29a108,108,0,0,0,8-7.77,34.52,34.52,0,0,0,5.69-8.21,21.19,21.19,0,0,0,2.12-9.44A10.79,10.79,0,0,0,407,269a8.71,8.71,0,0,0-11.92-.7,7,7,0,0,0-2.07,5.2,12.48,12.48,0,0,0,.17,2.17c.12.67.27,1.42.44,2.25l-8.82,1.67a19.48,19.48,0,0,1-.71-2.78,15.15,15.15,0,0,1-.26-2.78,15.71,15.71,0,0,1,4.41-11.52q4.41-4.46,12.44-4.45,8.39,0,13.07,4.72t4.68,13.37a25.13,25.13,0,0,1-2.21,10.68,33.5,33.5,0,0,1-6,8.83,101.22,101.22,0,0,1-8.48,8v8.56ZM393,330.15v-9.71h9.44v9.71Z" style="fill:none;stroke:#000;stroke-miterlimit:10"></path></g><g style="opacity:0.30000000000000004"><path d="M199.15,107.47v-8A78.84,78.84,0,0,0,205,93.81a24.94,24.94,0,0,0,4.16-6,15.44,15.44,0,0,0,1.54-6.89,7.86,7.86,0,0,0-1.57-5,6.33,6.33,0,0,0-8.7-.51,5.06,5.06,0,0,0-1.51,3.8,8.75,8.75,0,0,0,.13,1.57c.08.5.19,1,.32,1.65l-6.44,1.22a14.36,14.36,0,0,1-.52-2,11.2,11.2,0,0,1-.19-2,11.42,11.42,0,0,1,3.22-8.4q3.22-3.25,9.08-3.25,6.12,0,9.53,3.44t3.42,9.76a18.25,18.25,0,0,1-1.62,7.79,24.37,24.37,0,0,1-4.37,6.44,74.61,74.61,0,0,1-6.19,5.86v6.25Zm-.33,13.07v-7.08h6.89v7.08Z" style="fill:none;stroke:#000;stroke-miterlimit:10"></path></g><g style="opacity:0.30000000000000004"><path d="M73.4,338.2v-8a78.84,78.84,0,0,0,5.82-5.67,24.94,24.94,0,0,0,4.16-6,15.44,15.44,0,0,0,1.54-6.89,7.86,7.86,0,0,0-1.57-5,6.33,6.33,0,0,0-8.7-.51,5.05,5.05,0,0,0-1.51,3.79,8.79,8.79,0,0,0,.13,1.58c.08.5.19,1,.32,1.65l-6.44,1.22a14.36,14.36,0,0,1-.52-2,11.2,11.2,0,0,1-.19-2,11.42,11.42,0,0,1,3.22-8.4q3.23-3.26,9.08-3.25,6.12,0,9.53,3.44t3.42,9.76a18.25,18.25,0,0,1-1.62,7.79,24.53,24.53,0,0,1-4.37,6.44A74.61,74.61,0,0,1,79.51,332v6.25Zm-.33,13.07v-7.09H80v7.09Z" style="fill:none;stroke:#000;stroke-miterlimit:10"></path></g><g style="opacity:0.30000000000000004"><path d="M314.47,128.68v-5.23a52.23,52.23,0,0,0,3.82-3.71,16.41,16.41,0,0,0,2.72-3.93,10.06,10.06,0,0,0,1-4.52,5.14,5.14,0,0,0-1-3.29,3.62,3.62,0,0,0-3-1.31,3.7,3.7,0,0,0-2.68,1,3.35,3.35,0,0,0-1,2.49,5.75,5.75,0,0,0,.09,1c.05.32.12.68.21,1.07l-4.22.81a8.36,8.36,0,0,1-.34-1.33,7,7,0,0,1-.13-1.33A7.49,7.49,0,0,1,312,104.9a8,8,0,0,1,6-2.13,8.38,8.38,0,0,1,6.25,2.26,8.68,8.68,0,0,1,2.24,6.39,11.92,11.92,0,0,1-1.06,5.11,16,16,0,0,1-2.87,4.22,50.12,50.12,0,0,1-4,3.84v4.09Zm-.21,8.57v-4.64h4.52v4.64Z" style="fill:none;stroke:#000;stroke-miterlimit:10"></path></g><g style="opacity:0.30000000000000004"><path d="M314.28,392v-5.24A50.25,50.25,0,0,0,318.1,383a16.41,16.41,0,0,0,2.72-3.93,10.05,10.05,0,0,0,1-4.51,5.17,5.17,0,0,0-1-3.3,3.62,3.62,0,0,0-3-1.31,3.7,3.7,0,0,0-2.68,1,3.35,3.35,0,0,0-1,2.49,5.67,5.67,0,0,0,.09,1q.07.48.21,1.08l-4.22.8a8.1,8.1,0,0,1-.34-1.33,7,7,0,0,1-.13-1.33,7.49,7.49,0,0,1,2.11-5.51,8,8,0,0,1,5.95-2.13A8.38,8.38,0,0,1,324,368.3a8.68,8.68,0,0,1,2.24,6.39,11.92,11.92,0,0,1-1.06,5.11,15.85,15.85,0,0,1-2.87,4.22,50.12,50.12,0,0,1-4,3.84V392Zm-.21,8.56v-4.64h4.52v4.64Z" style="fill:none;stroke:#000;stroke-miterlimit:10"></path></g><g style="opacity:0.30000000000000004"><path d="M58.12,146.35v-5.23a50.31,50.31,0,0,0,3.82-3.72,16.56,16.56,0,0,0,2.72-3.92,10.09,10.09,0,0,0,1-4.52,5.13,5.13,0,0,0-1-3.29,4.16,4.16,0,0,0-5.7-.34,3.35,3.35,0,0,0-1,2.49,6.63,6.63,0,0,0,.08,1q.09.5.21,1.08l-4.22.8a8.92,8.92,0,0,1-.33-1.33,7,7,0,0,1-.13-1.33,7.5,7.5,0,0,1,2.11-5.51,8,8,0,0,1,5.95-2.13,8.43,8.43,0,0,1,6.25,2.26,8.72,8.72,0,0,1,2.24,6.4,12.05,12.05,0,0,1-1.06,5.1,15.85,15.85,0,0,1-2.87,4.22,48.5,48.5,0,0,1-4.05,3.85v4.09Zm-.21,8.57v-4.65h4.51v4.65Z" style="fill:none;stroke:#000;stroke-miterlimit:10"></path></g><g style="opacity:0.30000000000000004"><path d="M138.51,255.75v-5.23a50.31,50.31,0,0,0,3.82-3.72,16.5,16.5,0,0,0,2.73-3.92,10.22,10.22,0,0,0,1-4.52,5.13,5.13,0,0,0-1-3.29,4.16,4.16,0,0,0-5.7-.34,3.35,3.35,0,0,0-1,2.49,5.77,5.77,0,0,0,.08,1c.06.32.13.68.21,1.07l-4.22.8a10.33,10.33,0,0,1-.34-1.33,7.71,7.71,0,0,1-.12-1.32,7.47,7.47,0,0,1,2.11-5.51,8,8,0,0,1,6-2.14,8.45,8.45,0,0,1,6.25,2.26,8.72,8.72,0,0,1,2.23,6.4,12.1,12.1,0,0,1-1.05,5.11,16.26,16.26,0,0,1-2.87,4.22,48.69,48.69,0,0,1-4.06,3.84v4.09Zm-.21,8.57v-4.64h4.52v4.64Z" style="fill:none;stroke:#000;stroke-miterlimit:10"></path></g><g style="opacity:0.30000000000000004"><path d="M444.64,191v-5.24a48.41,48.41,0,0,0,3.82-3.71,16.41,16.41,0,0,0,2.72-3.93,10,10,0,0,0,1-4.51,5.17,5.17,0,0,0-1-3.3,3.61,3.61,0,0,0-3-1.3,3.69,3.69,0,0,0-2.69,1,3.31,3.31,0,0,0-1,2.49,5.64,5.64,0,0,0,.09,1c.05.33.12.68.21,1.08l-4.22.8a9.24,9.24,0,0,1-.34-1.33,7.87,7.87,0,0,1-.13-1.33,7.53,7.53,0,0,1,2.11-5.51,8,8,0,0,1,6-2.13,8.37,8.37,0,0,1,6.24,2.26,8.7,8.7,0,0,1,2.24,6.39,11.92,11.92,0,0,1-1.06,5.11,15.85,15.85,0,0,1-2.87,4.22,46.85,46.85,0,0,1-4.05,3.84V191Zm-.21,8.57v-4.65H449v4.65Z" style="fill:none;stroke:#000;stroke-miterlimit:10"></path></g></g></svg>
